<?xml version="1.0" standalone="no"?>
<!DOCTYPE svg PUBLIC "-//W3C//DTD SVG 20010904//EN"
 "http://www.w3.org/TR/2001/REC-SVG-20010904/DTD/svg10.dtd">
<svg version="1.0" xmlns="http://www.w3.org/2000/svg"
 width="700.000000pt" height="700.000000pt" viewBox="0 0 700.000000 700.000000"
 preserveAspectRatio="xMidYMid meet">
<metadata>
Created by potrace 1.11, written by Peter Selinger 2001-2013
</metadata>
<g transform="translate(0.000000,700.000000) scale(0.100000,-0.100000)"
fill="#000000" stroke="none">
<path d="M3298 6995 c-1 -1 -41 -6 -88 -9 -47 -4 -92 -9 -100 -11 -8 -2 -42
-7 -75 -10 -32 -4 -62 -8 -65 -10 -3 -1 -25 -6 -50 -9 -25 -3 -99 -19 -165
-35 -899 -221 -1658 -827 -2070 -1650 -130 -259 -235 -570 -281 -831 -4 -25
-8 -47 -9 -50 -3 -12 -18 -117 -20 -140 -1 -14 -6 -54 -11 -90 -16 -128 -10
-538 10 -690 3 -19 8 -55 11 -80 14 -109 74 -365 110 -476 33 -100 77 -220 96
-261 10 -24 19 -45 19 -49 0 -15 144 -290 195 -374 77 -124 187 -284 215 -310
3 -3 21 -25 40 -50 56 -73 97 -118 235 -255 336 -333 741 -584 1195 -738 99
-34 238 -74 284 -83 12 -2 32 -6 46 -9 53 -13 239 -44 321 -55 l85 -12 -251
-251 c-139 -139 -260 -264 -269 -279 -20 -31 -23 -86 -7 -117 26 -48 91 -70
143 -48 31 13 722 694 754 743 21 31 26 68 14 100 -11 27 -700 724 -749 756
-84 56 -196 -29 -169 -128 5 -21 84 -107 260 -283 l252 -253 -50 6 c-126 16
-139 19 -344 61 -47 10 -249 72 -330 102 -228 85 -518 242 -709 385 -153 115
-203 159 -349 305 -310 313 -546 695 -686 1115 -34 101 -87 300 -100 378 -3
19 -8 46 -11 60 -8 41 -21 144 -31 245 -13 140 -8 459 11 600 14 106 39 244
55 305 5 19 11 46 14 60 34 182 189 552 326 780 164 274 416 566 642 746 40
33 75 61 78 65 16 18 220 155 303 204 223 130 522 254 747 310 76 19 266 56
310 61 30 3 62 7 70 9 66 17 435 25 585 12 269 -23 515 -77 766 -168 828 -301
1483 -975 1765 -1816 32 -96 85 -296 98 -373 3 -19 8 -46 11 -60 3 -14 8 -45
11 -70 3 -25 7 -56 9 -70 33 -227 22 -621 -25 -865 -5 -27 -11 -61 -14 -75
-19 -114 -99 -376 -162 -528 -96 -232 -285 -550 -420 -709 -11 -11 -33 -38
-50 -60 -18 -21 -60 -67 -94 -103 -68 -72 -92 -115 -86 -157 6 -43 15 -60 43
-78 70 -46 119 -28 219 82 44 48 86 94 94 102 113 120 333 458 432 661 107
220 215 536 253 737 49 268 60 379 60 648 0 196 -7 311 -25 430 -5 33 -12 74
-14 90 -15 106 -73 338 -117 469 -287 850 -899 1521 -1724 1891 -87 39 -251
98 -400 145 -25 8 -85 23 -180 46 -45 10 -244 43 -300 50 -33 3 -73 8 -90 11
-35 5 -491 13 -497 8z"/>
<path d="M3353 6049 c-260 -56 -459 -247 -528 -508 -28 -105 -34 -280 -11
-334 36 -87 149 -93 202 -12 11 18 17 55 19 137 4 121 5 130 29 197 117 324
549 407 781 149 49 -55 101 -153 112 -214 4 -21 7 -262 7 -534 l1 -495 -815
-1 -815 0 -1 -992 0 -992 1166 0 1166 0 0 989 0 989 -20 4 c-12 2 -117 3 -233
3 l-213 -1 0 491 c-1 269 -3 508 -6 530 -3 22 -14 71 -25 110 -104 352 -457
561 -816 484z"/>
</g>
</svg>
